<svg xmlns="http://www.w3.org/2000/svg" xml:space="preserve" baseProfile="tiny" version="1.2" viewBox="0 0 1000 402.5">
  <path fill="#ED1D24" d="M0 0h1000v402.5H0z"/>
  <path fill="#FFF" d="M846.3 93.8V32.2H674.8L646.6 238 618.7 32.2h-61.8l6.9 54.9c-7.1-14.1-32.4-54.9-88.1-54.9h-61.9l-.2 300-45.1-300h-81L240.9 343V32.2h-77.5l-27.9 174.6-27.2-174.6H30.8v337.9h61V207.2l27.8 162.9H152l27.4-162.9v162.9h117.7l7.1-52h47.4l7.1 52 115.5.1h.1v-.1h.2V260.4l14.2-2.1L518 370.2H577.8v-.1h.2L539.4 239c19.5-14.4 41.5-51 35.7-86.1.1.5 36.3 217.4 36.3 217.4l71.1-.2L731 63.8v306.3h115.2v-60.8h-54.7v-77.5h54.7v-61.7h-54.7V93.8h54.8zM311.5 264.5 328.3 120l17.4 144.5h-34.2zm177.4-66.7c-4.7 2.3-9.6 3.4-14.4 3.4V92.5h.3c4.8 0 40.4 1.4 40.4 53.8 0 27.4-12.1 44.6-26.3 51.5m480.3 111.5V370H856.8V32.1h60.5v277.1h51.9v.1z"/>
</svg>
